# xmcd
#
# Track frame offsets: 
#        150
#        11245
#        24992
#        39914
#        54312
#        67497
#        80068
#        90048
#        102238
#        114616
#        128892
#        141634
#        155702
#        171245
#        188233
#        199154
#        211251
#        224016
#        237522
#        251773
#        268612
#        281257
#
# Disc length: 3880 seconds
#
# Revision: 0
# Processed by: cddbd v1.5.2PL0 Copyright (c) Steve Scherf et al.
# Submitted via: ExactAudioCopy v0.99pb4
#
DISCID=4e0f2616
DTITLE=Deep River Boys - London Harmony
DYEAR=2004
DGENRE=R&B
TTITLE0=That Lucky Old Sun
TTITLE1=Too-Whit, Too-Whoo
TTITLE2=Down In The Glen
TTITLE3=Oh Tell Me Gypsy
TTITLE4=Bewitched
TTITLE5=Ashes Of Roses
TTITLE6=I Still Love You
TTITLE7=September Song
TTITLE8=The Stars Are The Windows Of Heaven
TTITLE9=Mister and Mississippi
TTITLE10=May The Good Lord Bless and Keep You
TTITLE11=Too Young
TTITLE12=My Yiddisher Momma
TTITLE13=Eili Eili
TTITLE14=Deep Water
TTITLE15=I Won't Cry Anymore
TTITLE16=(It's No) Sin
TTITLE17=Glad Rag Doll
TTITLE18=Don't Trade Your Love For Gold
TTITLE19=Only Fascination
TTITLE20=Trying
TTITLE21=Tennessee News Boy
EXTD=
EXTT0=
EXTT1=
EXTT2=
EXTT3=
EXTT4=
EXTT5=
EXTT6=
EXTT7=
EXTT8=
EXTT9=
EXTT10=
EXTT11=
EXTT12=
EXTT13=
EXTT14=
EXTT15=
EXTT16=
EXTT17=
EXTT18=
EXTT19=
EXTT20=
EXTT21=
PLAYORDER=
